<?xml version="1.0" encoding="UTF-8" standalone="no"?>
  <!DOCTYPE svg PUBLIC "-//W3C//DTD SVG 1.1//EN" "http://www.w3.org/Graphics/SVG/1.1/DTD/svg11.dtd">
  <svg xmlns="http://www.w3.org/2000/svg" width="420" height="530" viewBox="-20 -20 420 530">
    <defs>
      <!-- Define marker for arrow heads -->
      <marker id="arrowhead" markerWidth="6" markerHeight="8" refX="0" refY="4" orient="auto">
        <polygon points="0 0, 6 4, 0 8" fill="#555" />
      </marker>
    </defs>
    <rect x="-20" y="-20" width="420" height="530" fill="white"/>
    <g class="edges">
      <path d="M75,265 C75,295 135,256 135,286" stroke="#555" stroke-width="1.5" fill="none" marker-end="url(#arrowhead)"/>
    <path d="M305,265 C305,295 245,256 245,286" stroke="#555" stroke-width="1.5" fill="none" marker-end="url(#arrowhead)"/>
    <path d="M75,115 C75,145 75,106 75,136" stroke="#555" stroke-width="1.5" fill="none" marker-end="url(#arrowhead)"/>
    <path d="M75,190 C75,220 75,181 75,211" stroke="#555" stroke-width="1.5" fill="none" marker-end="url(#arrowhead)"/>
    <path d="M190,415 C190,445 190,406 190,436" stroke="#555" stroke-width="1.5" fill="none" marker-end="url(#arrowhead)"/>
    <path d="M305,190 C305,220 305,181 305,211" stroke="#555" stroke-width="1.5" fill="none" marker-end="url(#arrowhead)"/>
    <path d="M135,40 C135,70 75,31 75,61" stroke="#555" stroke-width="1.5" fill="none" marker-end="url(#arrowhead)"/>
    <path d="M190,340 C190,370 190,331 190,361" stroke="#555" stroke-width="1.5" fill="none" marker-end="url(#arrowhead)"/>
    <path d="M245,40 C245,126.4 305,49.599999999999994 305,136" stroke="#555" stroke-width="1.5" fill="none" marker-end="url(#arrowhead)"/>
    </g>
    <g class="edge-labels">
      
    
    
    
    
    
    
            <g>
              <rect x="58.59055999999998" y="36" width="35" height="18" rx="6" ry="6"
                fill="white" stroke="#c9c9c9" stroke-width="0.5"/>
              <text x="76.09055999999998" y="46" text-anchor="middle" dominant-baseline="middle"
                font-family="Arial, sans-serif" font-size="10px" fill="#000" font-weight="500">image</text>
            </g>
          
    
    
            <g>
              <rect x="265.40943999999996" y="111" width="77" height="18" rx="6" ry="6"
                fill="white" stroke="#c9c9c9" stroke-width="0.5"/>
              <text x="303.90943999999996" y="121" text-anchor="middle" dominant-baseline="middle"
                font-family="Arial, sans-serif" font-size="10px" fill="#000" font-weight="500">point cloud</text>
            </g>
          
    </g>
    <g class="nodes">
      <g transform="translate(115,300)">
        <rect width="150" height="40" rx="5" ry="5" fill="hsl(297, 67%, 82%)" stroke="#949494" stroke-width="1"/>
        <text x="75" y="20" text-anchor="middle" dominant-baseline="middle" font-family="Arial, sans-serif" font-size="12px" font-weight="bold" fill="#000">additive_fusion</text>
        
        <circle cx="20" cy="0" r="4" fill="#555" stroke="white" stroke-width="1" /><circle cx="130" cy="0" r="4" fill="#555" stroke="white" stroke-width="1" />
        <circle cx="75" cy="40" r="4" fill="#555" stroke="white" stroke-width="1" />
      </g>
    <g transform="translate(0,150)">
        <rect width="150" height="40" rx="5" ry="5" fill="hsl(6, 56%, 81%)" stroke="#949494" stroke-width="1"/>
        <text x="75" y="20" text-anchor="middle" dominant-baseline="middle" font-family="Arial, sans-serif" font-size="12px" font-weight="bold" fill="#000">feature_pyramid_network</text>
        
        <circle cx="75" cy="0" r="4" fill="#555" stroke="white" stroke-width="1" />
        <circle cx="75" cy="40" r="4" fill="#555" stroke="white" stroke-width="1" />
      </g>
    <g transform="translate(115,0)">
        <rect width="150" height="40" rx="5" ry="5" fill="#ffffff" stroke="#000000" stroke-width="1"/>
        <text x="75" y="20" text-anchor="middle" dominant-baseline="middle" font-family="Arial, sans-serif" font-size="12px" font-weight="bold" fill="#000">input</text>
        
        
        <circle cx="20" cy="40" r="4" fill="#555" stroke="white" stroke-width="1" /><circle cx="130" cy="40" r="4" fill="#555" stroke="white" stroke-width="1" />
      </g>
    <g transform="translate(0,225)">
        <rect width="150" height="40" rx="5" ry="5" fill="hsl(54, 64%, 79%)" stroke="#949494" stroke-width="1"/>
        <text x="75" y="20" text-anchor="middle" dominant-baseline="middle" font-family="Arial, sans-serif" font-size="12px" font-weight="bold" fill="#000">lift_splat_shoot</text>
        
        <circle cx="75" cy="0" r="4" fill="#555" stroke="white" stroke-width="1" />
        <circle cx="75" cy="40" r="4" fill="#555" stroke="white" stroke-width="1" />
      </g>
    <g transform="translate(115,450)">
        <rect width="150" height="40" rx="5" ry="5" fill="#ffffff" stroke="#000000" stroke-width="1"/>
        <text x="75" y="20" text-anchor="middle" dominant-baseline="middle" font-family="Arial, sans-serif" font-size="12px" font-weight="bold" fill="#000">output</text>
        
        <circle cx="75" cy="0" r="4" fill="#555" stroke="white" stroke-width="1" />
        
      </g>
    <g transform="translate(230,225)">
        <rect width="150" height="40" rx="5" ry="5" fill="hsl(162, 52%, 77%)" stroke="#949494" stroke-width="1"/>
        <text x="75" y="20" text-anchor="middle" dominant-baseline="middle" font-family="Arial, sans-serif" font-size="12px" font-weight="bold" fill="#000">point_pillar_encoder</text>
        
        <circle cx="75" cy="0" r="4" fill="#555" stroke="white" stroke-width="1" />
        <circle cx="75" cy="40" r="4" fill="#555" stroke="white" stroke-width="1" />
      </g>
    <g transform="translate(0,75)">
        <rect width="150" height="40" rx="5" ry="5" fill="hsl(147, 57%, 82%)" stroke="#949494" stroke-width="1"/>
        <text x="75" y="20" text-anchor="middle" dominant-baseline="middle" font-family="Arial, sans-serif" font-size="12px" font-weight="bold" fill="#000">resnet_backbone</text>
        
        <circle cx="75" cy="0" r="4" fill="#555" stroke="white" stroke-width="1" />
        <circle cx="75" cy="40" r="4" fill="#555" stroke="white" stroke-width="1" />
      </g>
    <g transform="translate(115,375)">
        <rect width="150" height="40" rx="5" ry="5" fill="hsl(141, 51%, 76%)" stroke="#949494" stroke-width="1"/>
        <text x="75" y="20" text-anchor="middle" dominant-baseline="middle" font-family="Arial, sans-serif" font-size="12px" font-weight="bold" fill="#000">segmentation_head</text>
        
        <circle cx="75" cy="0" r="4" fill="#555" stroke="white" stroke-width="1" />
        <circle cx="75" cy="40" r="4" fill="#555" stroke="white" stroke-width="1" />
      </g>
    <g transform="translate(230,150)">
        <rect width="150" height="40" rx="5" ry="5" fill="hsl(206, 56%, 81%)" stroke="#949494" stroke-width="1"/>
        <text x="75" y="20" text-anchor="middle" dominant-baseline="middle" font-family="Arial, sans-serif" font-size="12px" font-weight="bold" fill="#000">voxelization</text>
        
        <circle cx="75" cy="0" r="4" fill="#555" stroke="white" stroke-width="1" />
        <circle cx="75" cy="40" r="4" fill="#555" stroke="white" stroke-width="1" />
      </g>
    </g>
  </svg>